# xmcd CD database file
#
# Track frame offsets:
#	150
#	6347
#	13170
#	20940
#	24427
#	27980
#	32925
#	37910
#	42275
#	46682
#	54675
#	58182
#	63165
#	69575
#	73727
#	78552
#	83997
#	92105
#	100202
#	108240
#	111425
#	114705
#	121797
#	127737
#
# Disc length: 1757 seconds
#
# Revision: 0
# Processed by: cddbd v1.5.2PL0 Copyright (c) Steve Scherf et al.
# Submitted via: CDex 1.70beta2
#
DISCID=4806db18
DTITLE=Dave Rubin - 12-Bar Blues: The Complete Guide for Guitar
DYEAR=1999
DGENRE=Blues
TTITLE0=Tuning
TTITLE1=Slow 12/8, Type 1
TTITLE2=Slow 12/8, Type 2
TTITLE3=Swinging Shuffle no. 1
TTITLE4=Swinging Shuffle no. 2
TTITLE5=Moderate Boogie Shuffle no. 1
TTITLE6=Moderate Boogie Shuffle no. 2
TTITLE7=Chicago Blues Riff no. 1
TTITLE8=Chicago Blues Riff no. 2
TTITLE9=Slow Minor Blues
TTITLE10=Jazzy Minor Blues
TTITLE11=Riff Blues no. 1
TTITLE12=Riff Blues no. 2
TTITLE13=Riff Blues no. 3
TTITLE14=Boogie Woogie Blues no. 1
TTITLE15=Boogie Woogie Blues no. 2
TTITLE16=Jazzy Blues
TTITLE17=Jazzier Blues
TTITLE18=Jazziest Blues
TTITLE19=Bebop Blues
TTITLE20=Accompanying Keyboards
TTITLE21=Turnarounds
TTITLE22=Intros
TTITLE23=Soloing over a 12-Bar Blues
EXTD=YEAR: 1999
EXTT0=
EXTT1=
EXTT2=
EXTT3=
EXTT4=
EXTT5=
EXTT6=
EXTT7=
EXTT8=
EXTT9=
EXTT10=
EXTT11=
EXTT12=
EXTT13=
EXTT14=
EXTT15=
EXTT16=
EXTT17=
EXTT18=
EXTT19=
EXTT20=
EXTT21=
EXTT22=
EXTT23=
PLAYORDER=
